# xmcd CD database file
#
# Track frame offsets:
#	150
#	42498
#	97671
#	125169
#	166017
#	198240
#	251538
#
# Disc length: 4211 seconds
#
# Revision: 0
# Processed by: cddbd v1.5.2PL0 Copyright (c) Steve Scherf et al.
# Submitted via: CDex 1.70beta2
#
DISCID=53107107
DTITLE=Kevin Hays Trio - Live At Smalls
DYEAR=2008
DGENRE=Jazz
TTITLE0=Cheryl
TTITLE1=The Anniversary Waltz
TTITLE2=Loving You
TTITLE3=Sco More Blues
TTITLE4=Ludus Tonalis
TTITLE5=Sweet And Lovely
TTITLE6=The Dreamer
EXTD=YEAR: 2008
EXTT0=
EXTT1=
EXTT2=
EXTT3=
EXTT4=
EXTT5=
EXTT6=
PLAYORDER=
